<svg xmlns="http://www.w3.org/2000/svg" width="749.356" height="524.549"><g stroke-miterlimit="10" data-paper-data="{&quot;isPaintingLayer&quot;:true}" style="mix-blend-mode:normal"><path fill="#fff" fill-rule="evenodd" d="M322.718 336.07l1.26 4.926-4.297-2.719-4.296 2.719 1.26-4.926-3.915-3.247 5.075-.324 1.876-4.726 1.878 4.726 5.074.324zm-40.882-39.565l1.26 4.93-4.298-2.723-4.296 2.723 1.259-4.93-3.914-3.243 5.074-.325 1.877-4.725 1.877 4.725 5.074.325zm-10.781-54.445l1.26 4.927-4.296-2.72-4.297 2.72 1.26-4.926-3.916-3.245 5.076-.326 1.877-4.726 1.876 4.726 5.075.326z"/><path fill="#009c37" fill-rule="evenodd" d="M749.356 0v524.55H0V0z"/><path fill="#fee000" d="M685.661 262.275l-310.983 198.58-310.983-198.58 310.983-198.58z"/><path fill="#027" d="M374.678 131.137c72.413 0 131.138 58.724 131.138 131.138 0 72.415-58.725 131.137-131.138 131.137-72.414 0-131.137-58.724-131.137-131.137s58.723-131.138 131.137-131.138z"/><path fill="#fff" fill-rule="evenodd" d="M417.8 217.77l1.26 4.926-4.294-2.72-4.297 2.72 1.26-4.926-3.916-3.245 5.077-.325 1.876-4.727 1.874 4.727 5.076.325zm-10.202 37.446l.904 3.544-3.09-1.956-3.09 1.956.907-3.544-2.818-2.334 3.651-.233 1.35-3.4 1.35 3.4 3.651.233zM271.054 242.06l1.26 4.927-4.294-2.72-4.297 2.72 1.26-4.926-3.916-3.245 5.077-.326 1.876-4.726 1.874 4.726 5.076.326zm55.018 26.613l1.064 4.157-3.627-2.294-3.626 2.294 1.064-4.157-3.304-2.741 4.282-.272 1.584-3.988 1.585 3.988 4.282.272zm-33.625 18.726l.678 2.65-2.312-1.463-2.31 1.463.676-2.65-2.105-1.746 2.73-.175 1.01-2.543 1.009 2.543 2.73.175zm-10.613 9.11l1.26 4.926-4.295-2.72-4.297 2.72 1.261-4.926-3.916-3.245 5.077-.325 1.875-4.727 1.875 4.727 5.075.325zm-14.206 11.145l1.062 4.157-3.625-2.295-3.626 2.295 1.063-4.157-3.303-2.737 4.281-.275 1.585-3.99 1.583 3.99 4.283.275zm40.248 1.02l1.063 4.16-3.625-2.297-3.625 2.297 1.062-4.16-3.303-2.738 4.283-.274 1.583-3.99 1.584 3.99 4.281.274zm-5.121 13.672l.906 3.543-3.09-1.957-3.09 1.957.905-3.543-2.816-2.335 3.651-.232 1.35-3.403 1.35 3.403 3.65.232zm19.963 13.724l1.26 4.926-4.295-2.72-4.297 2.72 1.26-4.926-3.916-3.245 5.077-.326 1.876-4.726 1.874 4.726 5.076.326zm53.778 30.86l.487 1.893-1.653-1.045-1.65 1.045.485-1.892-1.503-1.246 1.948-.126.72-1.817.722 1.817 1.95.126zm1.734-80.643l1.062 4.159-3.626-2.296-3.625 2.296 1.062-4.159-3.303-2.738 4.283-.275 1.583-3.988 1.585 3.988 4.281.275zm11.993 11.221l1.064 4.158-3.624-2.297-3.626 2.297 1.061-4.158-3.303-2.737 4.282-.275 1.586-3.988 1.583 3.988 4.283.275zm-21.523 8.139l.678 2.65-2.311-1.461-2.31 1.462.676-2.65-2.107-1.745 2.73-.175 1.01-2.544 1.01 2.544 2.731.175zm-9.014-6.763l.905 3.544-3.09-1.958-3.09 1.958.905-3.544-2.815-2.337 3.65-.231 1.35-3.401 1.35 3.4 3.65.232zm18.253 25.825l1.26 4.926-4.295-2.72-4.297 2.72 1.261-4.926-3.916-3.245 5.077-.325 1.875-4.727 1.875 4.727 5.075.325zm26.188 13.035l.904 3.547-3.09-1.958-3.09 1.958.906-3.547-2.817-2.331 3.651-.234 1.35-3.399 1.35 3.399 3.65.234zm11.128 16.316l1.063 4.16-3.625-2.297-3.627 2.297 1.064-4.16-3.303-2.736 4.282-.276 1.584-3.988 1.581 3.988 4.284.276zm11.593-13.014l.907 3.543-3.09-1.955-3.092 1.954.907-3.542-2.816-2.333 3.648-.234 1.353-3.4 1.348 3.4 3.65.234zm15.637 23.462l.905 3.545-3.089-1.958-3.09 1.958.904-3.545-2.815-2.333 3.652-.234 1.35-3.4 1.346 3.4 3.654.234zm.531-13.628l1.063 4.157-3.627-2.296-3.626 2.296 1.064-4.157-3.301-2.74 4.28-.272 1.583-3.99 1.584 3.99 4.283.272zm-.737-12.874l.908 3.542-3.092-1.955-3.089 1.955.904-3.542-2.814-2.336 3.65-.234 1.35-3.4 1.35 3.4 3.65.234zm12.953.126l.906 3.546-3.09-1.958-3.091 1.958.907-3.546-2.818-2.332 3.65-.234 1.351-3.4 1.35 3.4 3.65.234zm12.626-5.409l1.064 4.154-3.626-2.293-3.627 2.293 1.064-4.154-3.303-2.742 4.283-.272 1.583-3.989 1.582 3.99 4.283.271zm6.202-10.405l1.064 4.155-3.629-2.293-3.625 2.293 1.064-4.155-3.302-2.74 4.281-.274 1.582-3.988 1.585 3.988 4.283.274zm-4.72-12.738l1.26 4.927-4.294-2.72-4.297 2.72 1.26-4.927-3.916-3.245 5.077-.325 1.876-4.726 1.874 4.726 5.076.325zm18.345.86l.905 3.544-3.09-1.956-3.092 1.956.908-3.544-2.817-2.331 3.65-.237 1.35-3.4 1.35 3.4 3.65.237z"/><path fill="#fff" fill-rule="evenodd" d="M296.343 221.85a314.448 314.448 0 00-47.504 3.596 129.773 129.773 0 017.115-18.788 332.68 332.68 0 0140.39-2.47c78.837 0 151.388 27.727 208.396 73.898a129.373 129.373 0 01-3.993 19.65c-54.987-47.258-126.452-75.886-204.404-75.886z"/><path fill="#009c37" fill-rule="evenodd" d="M262.601 215.05c.11 1.28.482 2.25 1.112 2.912.629.66 1.455.945 2.478.858 1.032-.089 1.806-.512 2.32-1.27.514-.758.713-1.778.604-3.06-.11-1.277-.481-2.248-1.117-2.907-.636-.661-1.47-.945-2.502-.857-1.022.089-1.789.51-2.296 1.267-.508.753-.709 1.772-.599 3.057zm-2.44.209c-.161-1.88.223-3.414 1.153-4.605.929-1.191 2.262-1.864 4.002-2.012 1.737-.15 3.167.284 4.293 1.302 1.125 1.018 1.767 2.464 1.929 4.338.16 1.876-.225 3.413-1.16 4.606-.937 1.194-2.272 1.867-4.009 2.015-1.74.15-3.168-.284-4.287-1.302-1.119-1.018-1.76-2.465-1.921-4.342zm19.006-2.175l2.825-.093c.61-.021 1.056-.162 1.337-.418.278-.26.409-.654.39-1.188-.017-.507-.169-.886-.457-1.14-.288-.252-.711-.369-1.264-.35l-2.934.098.103 3.091zm-2.184 6.649l-.39-11.674 5.663-.189c1.271-.044 2.224.198 2.855.722.633.523.966 1.347 1.003 2.466.024.711-.105 1.313-.388 1.798a2.259 2.259 0 01-1.256 1.018c.514.163.883.425 1.112.787.226.364.367.936.425 1.717l.095 1.376c0 .012 0 .028.002.05.035.694.202 1.113.494 1.25l.011.358-2.634.088a2.277 2.277 0 01-.212-.6 5.565 5.565 0 01-.11-.858l-.073-1.226c-.052-.722-.203-1.207-.456-1.45-.255-.247-.704-.358-1.343-.337l-2.546.085.152 4.539-2.403.08zm17.238-2.624l1.927.037c1.115.022 1.93-.255 2.439-.83.511-.572.778-1.517.803-2.827.025-1.305-.19-2.27-.642-2.89-.455-.625-1.175-.943-2.165-.963l-2.22-.042-.142 7.515zm-2.395 2.065l.222-11.678 4.573.086c1.791.034 3.12.544 3.98 1.527.862.983 1.275 2.458 1.238 4.425-.02 1.067-.2 2.005-.54 2.813-.341.807-.828 1.454-1.453 1.937a4.375 4.375 0 01-1.6.768c-.597.148-1.427.214-2.496.193l-3.924-.071zm14.82.26l.629-11.662 8.47.458-.11 2.027-6.104-.329-.134 2.486 5.582.302-.108 1.994-5.582-.301-.163 3 6.39.345-.117 2.155-8.754-.475zm13.746.817l1.238-11.613 3.535.377 1.367 9.086 3.222-8.597 3.548.38-1.239 11.614-2.239-.24.998-9.366-3.357 9.115-2.444-.262-1.392-9.62-.998 9.365-2.239-.239zm30.95 3.984l2.446-11.42 8.296 1.776-.426 1.986-5.976-1.28-.522 2.435 5.466 1.17-.418 1.954-5.467-1.17-.63 2.938 6.258 1.34-.452 2.11-8.576-1.84zm30.915.722l2.244.605c.605.164 1.08.153 1.428-.029.345-.185.594-.56.748-1.133.144-.535.117-.976-.077-1.327-.198-.347-.563-.593-1.099-.739l-2.366-.637-.879 3.26zm-.566 2.04l-1.08 4.01-2.321-.624 3.04-11.278 5.014 1.352c1.184.319 1.998.87 2.445 1.649.441.778.506 1.762.183 2.954-.312 1.163-.853 1.978-1.619 2.448-.766.469-1.709.555-2.811.257l-2.851-.769zm14.043 1.835l2.701.83c.583.18 1.052.193 1.403.04.347-.153.597-.485.756-.997.148-.483.127-.892-.062-1.225-.192-.332-.554-.58-1.082-.743l-2.806-.863-.91 2.958zm-4.229 5.575l3.433-11.163 5.415 1.664c1.218.374 2.038.912 2.463 1.612.428.702.475 1.588.145 2.66-.208.68-.525 1.207-.953 1.573a2.254 2.254 0 01-1.516.552c.43.323.694.69.794 1.108.095.418.041 1.004-.156 1.762l-.358 1.33a.125.125 0 00-.015.047c-.19.669-.17 1.12.061 1.344l-.105.343-2.522-.775a2.381 2.381 0 01-.003-.636c.03-.243.084-.526.177-.846l.329-1.185c.186-.698.2-1.206.04-1.519-.162-.316-.549-.568-1.158-.755l-2.435-.748-1.335 4.342-2.299-.71zm17.789-.04c-.442 1.207-.516 2.244-.224 3.108.294.865.92 1.473 1.883 1.824.974.356 1.854.3 2.64-.17.787-.47 1.4-1.31 1.84-2.517.442-1.205.515-2.242.217-3.107-.296-.867-.933-1.478-1.904-1.834-.964-.353-1.838-.294-2.616.176-.781.47-1.395 1.31-1.836 2.52zm-2.3-.843c.646-1.77 1.645-3 2.99-3.686 1.347-.687 2.839-.732 4.48-.134 1.637.6 2.751 1.597 3.338 2.996.59 1.397.563 2.979-.083 4.746-.648 1.77-1.647 2.998-3 3.685-1.35.687-2.845.732-4.483.134-1.641-.6-2.752-1.597-3.336-2.993-.584-1.396-.555-2.978.094-4.748zm21.606 13.718c-.63.37-1.252.572-1.868.61-.615.035-1.266-.092-1.955-.385-1.5-.64-2.494-1.68-2.982-3.12-.486-1.44-.367-3.01.357-4.707.73-1.711 1.78-2.884 3.145-3.513 1.365-.63 2.822-.615 4.37.044 1.346.573 2.307 1.362 2.886 2.37.573 1.007.703 2.11.38 3.305l-2.253-.96c.102-.617.008-1.16-.29-1.63s-.785-.853-1.46-1.14c-.897-.383-1.745-.355-2.54.085-.796.44-1.437 1.241-1.933 2.403-.498 1.168-.621 2.195-.367 3.086.252.889.847 1.532 1.781 1.93.698.299 1.374.341 2.02.13.648-.215 1.184-.657 1.6-1.329l-2.435-1.036.784-1.839 4.45 1.897-2.48 5.813-1.48-.632.27-1.382zm11.105-.308l2.538 1.244c.55.268 1.009.354 1.379.257.366-.097.666-.386.902-.867.224-.454.265-.86.133-1.22-.138-.358-.458-.66-.953-.902l-2.636-1.292-1.363 2.78zm-5.048 4.846l5.135-10.49 5.09 2.491c1.141.56 1.871 1.22 2.18 1.98.312.758.221 1.64-.272 2.647-.312.64-.71 1.109-1.188 1.405a2.24 2.24 0 01-1.584.308c.377.386.58.79.61 1.218.03.427-.114.998-.429 1.716l-.563 1.26c-.007.01-.011.023-.019.042-.296.632-.347 1.08-.15 1.338l-.159.32-2.368-1.158a2.34 2.34 0 01.094-.63c.067-.235.166-.506.307-.808l.508-1.119c.296-.66.39-1.16.278-1.495-.108-.335-.45-.645-1.026-.926l-2.285-1.121-1.998 4.079-2.159-1.057zm13.052 6.702l5.678-10.207 7.414 4.124-.988 1.776-5.34-2.972-1.21 2.176 4.884 2.717-.972 1.747-4.884-2.718-1.459 2.625 5.59 3.111-1.048 1.885-7.665-4.264zm13.18 3.62l2.03 1.225c-.253.593-.273 1.135-.063 1.624.211.488.668.943 1.37 1.365.6.363 1.112.525 1.543.496.433-.028.772-.252 1.025-.669.363-.608-.204-1.633-1.71-3.083-.018-.02-.037-.036-.05-.05l-.182-.176c-.812-.768-1.34-1.396-1.582-1.89a2.57 2.57 0 01-.258-1.4c.045-.495.223-1 .538-1.523.587-.973 1.368-1.519 2.342-1.64.972-.12 2.083.197 3.332.95 1.169.705 1.917 1.532 2.242 2.48.324.95.202 1.936-.367 2.966l-1.976-1.192c.255-.508.293-.988.11-1.441-.184-.456-.585-.871-1.203-1.244-.541-.325-1.017-.472-1.439-.436-.419.034-.742.246-.979.636-.318.53.011 1.266.987 2.215l.618.604c.618.624 1.05 1.084 1.292 1.37a5.6 5.6 0 01.59.83c.268.47.395.955.371 1.45-.019.496-.189 1.008-.503 1.527-.628 1.04-1.462 1.634-2.512 1.786-1.045.15-2.206-.159-3.483-.93-1.26-.758-2.07-1.645-2.433-2.66-.362-1.018-.246-2.079.349-3.19zm12.309 7.699l1.964 1.33c-.285.577-.333 1.118-.148 1.619.187.498.617.974 1.295 1.435.58.393 1.084.583 1.515.576.434-.005.784-.21 1.059-.614.398-.588-.12-1.642-1.543-3.169-.018-.02-.037-.037-.049-.055-.04-.037-.096-.1-.173-.184-.769-.807-1.265-1.462-1.48-1.968a2.587 2.587 0 01-.187-1.413c.072-.49.278-.987.618-1.492.637-.94 1.448-1.446 2.425-1.515.975-.067 2.07.307 3.28 1.124 1.128.766 1.833 1.628 2.108 2.593.272.967.101 1.947-.523 2.945l-1.91-1.294c.28-.495.342-.972.185-1.434-.16-.464-.536-.9-1.136-1.304-.522-.355-.993-.524-1.413-.514-.42.015-.756.209-1.01.583-.35.513-.057 1.266.867 2.267.25.27.45.482.585.633.585.657.992 1.135 1.218 1.437.228.3.41.587.544.856.245.487.345.974.299 1.47-.048.494-.24.995-.582 1.499-.683 1.006-1.547 1.557-2.602 1.651-1.054.094-2.197-.275-3.434-1.112-1.215-.822-1.982-1.75-2.288-2.783-.31-1.038-.139-2.09.515-3.167zm14.84 7.878c-.775 1.023-1.147 1.995-1.123 2.905.027.912.45 1.677 1.268 2.296.827.625 1.685.829 2.573.61.89-.22 1.721-.847 2.497-1.873.774-1.02 1.145-1.99 1.116-2.907-.03-.915-.461-1.683-1.288-2.308-.816-.622-1.67-.818-2.55-.598-.885.222-1.715.846-2.492 1.875zm-1.953-1.478c1.134-1.506 2.45-2.389 3.938-2.652 1.488-.264 2.929.13 4.322 1.185 1.392 1.05 2.163 2.33 2.318 3.837.156 1.51-.334 3.015-1.467 4.515-1.138 1.503-2.452 2.386-3.944 2.649-1.495.26-2.938-.135-4.326-1.185-1.395-1.054-2.165-2.331-2.316-3.835-.15-1.505.34-3.011 1.475-4.514z"/></g></svg>