<svg width="2000" height="1400" viewBox="0 0 1320 924" xmlns="http://www.w3.org/2000/svg"><path d="M0 297h1320v330H0z" fill="#fff"/><path d="M0 0h1320v297H0z" fill="#0096e1"/><path d="M0 627h1320v297H0z" fill="#f09bbe"/><path d="M329.19 527.946l-16.289-37-12.583 6.118-3.318-7.606 33.752-16.345 3.318 7.52-12.583 6.118 16.289 37-8.586 4.195m26.721-12.765l-17.534-45.568 18.512-7.801c4.59-2.015 8.148-2.99 10.524-3.097 2.45-.108 4.682.644 6.772 2.17 2.09 1.61 3.59 3.742 4.647 6.392 1.285 3.42 1.456 6.678.362 9.69-1.02 3.013-3.377 5.693-6.927 7.87 2.304.322 4.388.99 6.101 1.832 1.788.842 4.4 2.62 7.907 5.248l8.733 6.613-10.515 4.47-10.148-7.2c-3.656-2.628-6.042-4.15-7.234-4.74-1.193-.59-2.308-.837-3.347-.742-1.04.009-2.596.452-4.595 1.328l-1.777.788 7.33 18.98-8.81 3.767m-1.316-30.014l6.441-2.803c4.221-1.754 6.811-3.064 7.697-3.844.885-.866 1.473-1.815 1.688-3.018.29-1.118.132-2.403-.397-3.77-.604-1.54-1.429-2.647-2.62-3.237-1.118-.59-2.456-.75-3.939-.394-.816.179-2.963 1.056-6.518 2.546l-6.811 2.978 4.459 11.542m85.229-2.824l-9.778 3.52-7.265-9.115-17.705 6.336-.217 11.84-9.557 3.432 2.171-52.694 9.483-3.345 32.868 40.026m-22.51-12.409l-11.685-15.08-.39 19.392 12.076-4.312m14.904-36.336l18.009-5.31c3.632-1.061 6.3-1.686 8.156-1.874 1.78-.273 3.564-.032 5.202.554 1.637.586 3.129 1.516 4.55 2.962 1.345 1.36 2.322 3.067 2.855 5.035.535 2.226.55 4.457-.104 6.607-.653 2.236-1.83 4.049-3.527 5.522 2.97.06 5.5.895 7.516 2.42 2.016 1.613 3.367 3.745 4.053 6.484.609 2.14.699 4.455.269 6.775-.43 2.235-1.308 4.301-2.633 6.029-1.326 1.642-3.173 3.031-5.468 3.995-1.481.614-5.112 1.762-10.892 3.53l-15.416 4.513-12.57-47.242m11.247 5.132l2.896 10.955 5.929-1.77c3.557-1.06 5.78-1.767 6.594-2.117 1.481-.614 2.589-1.568 3.25-2.689.586-1.206.725-2.58.343-4.12-.38-1.456-1.13-2.564-2.1-3.242-1.045-.677-2.309-.923-3.867-.652-.964.18-3.558.89-7.857 2.13l-5.188 1.505m4.954 18.829l3.427 12.666 8.374-2.477c3.335-.974 5.335-1.678 6.224-2.115 1.257-.698 2.216-1.65 2.728-2.856.66-1.292.724-2.751.267-4.463-.38-1.37-1.056-2.478-1.953-3.328-.896-.764-2.087-1.183-3.424-1.256-1.412-.074-4.156.466-8.232 1.703l-7.411 2.126m83.248.711l-10.01 2.32-6.304-9.98-18.24 4.196-1.554 11.767-9.787 2.232 7.893-52.059 9.787-2.232 28.215 43.756m-20.968-15.082l-9.986-16.382-2.47 19.239 12.456-2.857m26.383 14.262l-7.378-48.148 9.346-1.542 6.135 39.923 23.217-3.897 1.243 8.138-32.563 5.526m39.313-6.53l-4.784-48.857 9.424-1.028 1.838 19.286 18.476-2.053-1.91-19.2 9.423-1.028 4.784 48.857-9.424 1.028-2.074-21.343-18.477 1.968 2.074 21.342-9.35 1.028m89.214-6.634l-10.245.435-4.529-10.94-18.708.768-3.413 11.355-10.022.433 16.298-49.904 10.022-.433 20.597 48.286m-18.17-18.625l-7.1-17.952-5.669 18.496 12.77-.544m59.685 19.453l3.086-49.013 34.621 2.435-.464 8.24-25.26-1.747-.67 10.901 23.477 1.591-.539 8.241-23.476-1.591-.875 13.391 26.15 1.738-.538 8.327-35.512-2.513m112.025-4.522l8.571 4.641c-2.268 5.082-5.215 8.54-8.914 10.547-3.625 2.005-7.929 2.559-12.836 1.659-6.17-1.146-10.796-4.278-14.023-9.311-3.227-5.118-4.236-11.543-2.95-19.104 1.357-8.077 4.362-13.937 9.09-17.669 4.652-3.816 10.287-5.068 16.755-3.925 5.577 1.065 9.9 3.6 12.825 7.778 1.798 2.386 2.86 5.636 3.258 9.75l-9.575.601c-.166-2.572-.997-4.795-2.494-6.497-1.423-1.79-3.435-2.886-5.89-3.38-3.419-.569-6.458.23-8.968 2.398-2.585 2.167-4.34 6.13-5.267 11.886-.998 6.185-.67 10.73.983 13.717 1.654 2.988 4.19 4.767 7.536 5.337 2.454.493 4.753.043 6.823-1.348 1.996-1.305 3.763-3.637 5.076-7.08m17.58-2.903c1.08-4.9 2.688-8.775 4.896-11.797 1.545-2.159 3.463-3.977 5.681-5.456 2.218-1.478 4.513-2.442 6.887-2.893 3.115-.542 6.532-.316 10.251.595 6.695 1.655 11.545 5.13 14.626 10.506 3.006 5.378 3.644 11.978 1.914 19.715-1.73 7.736-5.108 13.343-10.135 16.648-4.953 3.39-10.814 4.215-17.508 2.559-6.769-1.655-11.619-5.129-14.7-10.506-3.006-5.292-3.643-11.806-1.912-19.371m9.518 1.973c-1.226 5.416-.899 9.874.832 13.29 1.73 3.33 4.418 5.451 8.137 6.361 3.645.911 6.982.28 9.938-1.89 2.956-2.172 5.083-6.051 6.382-11.64 1.226-5.415.974-9.788-.682-13.119-1.656-3.245-4.417-5.365-8.21-6.274-3.794-.91-7.132-.365-10.088 1.806-2.955 2.171-5.01 5.964-6.309 11.466m36.472 34.76l13.57-47.047 8.93 2.75 9.309 37.15 8.7-31.392 8.928 2.665-13.792 47.05-9.079-2.835-9.304-36.376-8.854 30.62-8.408-2.584m45.32 14.52l16.027-46.212 29.78 11.314-2.176 7.827-21.589-8.042-3.639 11.013 18.611 6.868-2.918 7.833-18.61-6.868-6.552 19.619-8.933-3.352m37.225 14.336l17.515-45.71 8.193 3.615-16.772 45.704-8.936-3.609m55.86 24.721l-9.683-4.374.662-11.93-17.131-7.825-7.368 8.645-9.682-4.203 35.393-37.378 9.681 4.116-1.872 52.949m-8.337-25.147l.612-19.394-12.53 14.01 11.918 5.384" fill="#0096e1"/></svg>