<svg width="560" height="392" version="1.0" xmlns="http://www.w3.org/2000/svg"><path fill="#1fa22e" fill-rule="evenodd" d="M0 0h560v392H0z"/><path fill="#fd0" fill-rule="evenodd" d="M0 49h560v49H0z"/><path d="M0 0h196v147H0z" fill="#00519e"/><path d="M111.765 94.774L98 84.73 84.235 94.774l5.258-16.252-13.765-10.044h17.014L98 52.226l5.258 16.252h17.014l-13.765 10.044zm-53.958 41.39l-18.353-13.392L21.1 136.164l7.01-21.669-18.353-13.392h22.686l7.01-21.668 7.011 21.668H69.15l-18.353 13.392zm0-68.599L39.454 54.173 21.1 67.565l7.01-21.668L9.758 32.505h22.686l7.01-21.67 7.011 21.67H69.15L50.797 45.897zm117.093 0l-18.354-13.392-18.353 13.392 7.01-21.668-18.353-13.392h22.686l7.01-21.67 7.01 21.67h22.687l-18.354 13.392zm0 68.599l-18.354-13.392-18.353 13.392 7.01-21.669-18.353-13.392h22.686l7.01-21.668 7.01 21.668h22.687l-18.354 13.392z" fill="#fff"/><path d="M0 147h560v49H0zm0 98h560v49H0zm0 98h560v49H0z" fill="#fd0" fill-rule="evenodd"/></svg>