<svg width="540" height="360" xmlns="http://www.w3.org/2000/svg"><path fill="#3155A4" d="M0 0h540v216H0z"/><path d="M69 270a129 129 202.5 01402 0" stroke-width="12" stroke="#C34342" fill="none"/><path d="M81 270a117 117 202.5 01378 0" stroke-width="12" stroke="#FFB511" fill="none"/><path d="M93 270a105 105 202.5 01354 0" stroke-width="12" stroke="#00AD4A" fill="none"/><path fill="#fff" d="M0 216h540v144H0z"/><path d="M270 243v90m-27-58.5h54" stroke-width="12" stroke="#C34342" fill="none"/><path fill="#FFB511" d="M270 126l2.937 9.192 5.216-8.119.457 9.64 7.14-6.493-2.053 9.43 8.577-4.424-4.424 8.577 9.43-2.053-6.493 7.14 9.64.457-8.12 5.216 9.193 2.937-9.192 2.937 8.119 5.216-9.64.457 6.493 7.14-9.43-2.053 4.424 8.577-8.577-4.424 2.053 9.43-7.14-6.493-.457 9.64-5.216-8.12L270 189l-2.937-9.192-5.216 8.119-.457-9.64-7.14 6.493 2.053-9.43-8.577 4.424 4.424-8.577-9.43 2.053 6.493-7.14-9.64-.457 8.12-5.216-9.193-2.937 9.192-2.937-8.119-5.216 9.64-.457-6.493-7.14 9.43 2.053-4.424-8.577 8.577 4.424-2.053-9.43 7.14 6.493.457-9.64 5.216 8.12zm0-108l8.773 27-22.968-16.687h28.39L261.227 45z"/></svg>