<svg width="1050" height="750" version="1.0" xmlns="http://www.w3.org/2000/svg"><path d="M0 0h1050v187.5H0zm0 375h1050v187.5H0z" fill="#00a859"/><path d="M0 187.5h1050V375H0zm0 375h1050V750H0z" fill="#ffdd21"/><path d="M0 0h375v375H0z" fill="#005c8b"/><path d="M335.905 349.479l-25.19-18.302-25.192 18.302 9.623-29.614-25.191-18.302h31.137l9.622-29.613 9.622 29.613h31.138l-25.191 18.302zM89.477 103.05L64.286 84.748 39.095 103.05l9.622-29.613-25.19-18.302h31.137l9.622-29.614 9.622 29.614h31.137l-25.19 18.302zm246.428 0l-25.19-18.302-25.192 18.302 9.623-29.613-25.191-18.302h31.137l9.622-29.614 9.622 29.614h31.138l-25.191 18.302zM89.477 349.479l-25.191-18.302-25.191 18.302 9.622-29.614-25.19-18.302h31.137l9.622-29.613 9.622 29.613h31.137l-25.19 18.302zm148.405-84.449L187.5 228.424l-50.382 36.604 19.244-59.227-50.381-36.604h62.275L187.5 109.97l19.244 59.227h62.275l-50.381 36.604z" fill="#fff"/></svg>